<?xml version="1.0" standalone="no"?>
<!DOCTYPE svg PUBLIC "-//W3C//DTD SVG 20010904//EN"
 "http://www.w3.org/TR/2001/REC-SVG-20010904/DTD/svg10.dtd">
<svg version="1.0" xmlns="http://www.w3.org/2000/svg"
 width="700.000000pt" height="700.000000pt" viewBox="0 0 700.000000 700.000000"
 preserveAspectRatio="xMidYMid meet">
<metadata>
Created by potrace 1.11, written by Peter Selinger 2001-2013
</metadata>
<g transform="translate(0.000000,700.000000) scale(0.100000,-0.100000)"
fill="#000000" stroke="none">
<path d="M2152 5915 c-105 -45 -152 -131 -129 -231 5 -17 45 -129 91 -249 l83
-218 -35 -31 c-19 -17 -42 -47 -50 -66 -32 -77 -29 -92 123 -500 l144 -385
-16 -50 c-8 -27 -26 -79 -38 -115 -102 -287 -178 -530 -178 -571 1 -55 22 -99
70 -145 l35 -34 -32 -93 c-18 -50 -52 -148 -75 -217 -24 -69 -79 -228 -123
-355 -209 -601 -253 -733 -268 -789 -26 -98 -26 -214 0 -332 16 -75 115 -234
183 -294 85 -76 185 -128 298 -153 62 -15 204 -16 1280 -16 1322 1 1255 -2
1389 57 139 62 267 200 324 350 36 94 46 152 44 249 -2 92 -15 143 -108 410
-42 120 -77 223 -78 228 -2 6 -6 17 -9 25 -4 8 -29 80 -56 160 -27 80 -88 258
-136 395 -48 138 -96 278 -108 313 l-21 62 31 29 c68 62 87 148 55 246 -26 76
-95 275 -166 479 l-56 159 20 56 c11 31 23 63 27 71 3 8 7 20 9 25 2 6 53 143
114 305 126 332 132 363 87 446 -9 18 -29 43 -45 56 l-29 24 84 220 c101 262
109 307 69 388 -22 46 -35 59 -78 80 l-52 26 -1320 -1 c-1126 0 -1326 -2
-1354 -14z m2327 -397 c0 -7 -23 -71 -52 -143 l-52 -130 -879 -1 c-789 0 -879
1 -883 15 -10 30 -70 190 -92 244 l-11 27 985 0 c782 0 985 -3 984 -12z m-123
-2253 c7 -22 45 -132 84 -245 40 -113 77 -221 82 -240 6 -19 13 -39 16 -45 4
-5 7 -14 8 -20 1 -5 35 -102 74 -215 40 -113 82 -236 95 -275 13 -38 53 -155
90 -260 63 -179 66 -194 62 -261 -3 -58 -9 -79 -33 -115 -41 -61 -99 -99 -165
-107 -30 -4 -570 -7 -1201 -6 l-1146 1 -54 26 c-70 35 -117 102 -124 178 -7
64 -23 11 226 729 45 129 92 267 105 305 13 39 39 115 59 170 19 55 55 161 81
235 25 74 51 147 57 163 l10 27 831 -2 831 -3 12 -40z"/>
<path d="M2706 2555 c-14 -38 -44 -124 -67 -190 -80 -233 -167 -480 -174 -498
-13 -32 3 -82 34 -100 27 -16 101 -17 1001 -17 647 0 978 3 991 10 25 14 48
61 45 91 -2 13 -19 69 -39 124 -19 55 -67 190 -105 300 -38 110 -82 233 -96
274 -14 41 -26 75 -26 75 0 1 -346 1 -770 1 l-769 0 -25 -70z"/>
</g>
</svg>
